<svg id="Layer_1" data-name="Layer 1" xmlns="http://www.w3.org/2000/svg" viewBox="0 0 93.39 100"><defs><style>.cls-1{fill:#5865f2;}</style></defs><path class="cls-1" d="M35.77,51.26a4.69,4.69,0,0,1-.07-3.51,4.58,4.58,0,0,0,0-1.87c-.53-.45-.86-.75-1.2-1-.15-.12-.33-.3-.49-.29a8.12,8.12,0,0,0-2.77.25c-1,.44-1.41,0-1.75-.71-.94-1.94-2.22-2.67-4.36-2.13a29.78,29.78,0,0,0-4.89,1.7A4.24,4.24,0,0,1,17,44a6.08,6.08,0,0,0-4.73.45A2.52,2.52,0,0,1,9.14,44c-1.31-1.08-2.68-2.09-3.9-3.26A5.27,5.27,0,0,1,4.1,38.56c-.26-.8-.36-1.62-1.19-2.08-.15-.09-.24-.32-.34-.49-.23-.41-.45-.82-.71-1.3,0-.18,0-.53-.18-.73s-.69-.57-1-.89c-.78-.75-.32-1,.47-1.17L0,30c.65-1.3,1.31-2.53,1.87-3.79a3.52,3.52,0,0,0,.22-1.55,3.36,3.36,0,0,1,.33-2.34,1.28,1.28,0,0,0-.1-1,1.71,1.71,0,0,1,.28-2c.93-1.11,1.84-2.23,2.76-3.34.07-.08.19-.14.21-.23.44-1.7,2.09-2.44,3-3.75a3,3,0,0,1,1-.65A21.6,21.6,0,0,0,12.43,9.8a3.56,3.56,0,0,0,1-1.78,3.88,3.88,0,0,1,2.07-2.79A7.21,7.21,0,0,0,19.24,2.1c.27-.53.68-.6,1.07-.06.06.09.16.22.22.21,1.31-.29,2.58.6,4,0A15.23,15.23,0,0,1,30.43.43c1.66,0,3.32,0,5,0A8.83,8.83,0,0,0,37.06.07c.91-.22,1.37.09,1.55,1A8.11,8.11,0,0,0,39,2.28a3.31,3.31,0,0,1-.25.3c-1.39,1.21-1.36,1.54.44,2.14,1.35.45,2.79.64,4.18,1a1.27,1.27,0,0,1,.83.53c.32.83,1,1,1.73,1.2a11.87,11.87,0,0,1,2.11.7c1.3.6,2.2.08,2.41-1.33a2.19,2.19,0,0,1,.92-1.1,2.25,2.25,0,0,1,2.5,0,7.57,7.57,0,0,0,1.39.64c1.64.41,3.33.69,5,1.18a4,4,0,0,0,2.86-.16c1.66-.71,2.34-.3,2.92,1.36a14.85,14.85,0,0,0,1.4,2.56c.4.66.89,1.27,1.28,1.94.92,1.58,1.78,3.2,2.71,4.77a2.91,2.91,0,0,0,1,.94,2.89,2.89,0,0,1,1.41,2.25,14.73,14.73,0,0,0,.47,2.17c.08.3.22.71.45.81,1.63.76,2.11,2.33,2.7,3.78.4,1,1.24,1.35,2,1.92a33.27,33.27,0,0,1,3.73,3.4c.13.12-.26.76-.36,1,.57.46,1.18,1,1.86,1.48a1.4,1.4,0,0,0,1,.27c1.45-.31,2.89-.68,4.32-1.07a17.72,17.72,0,0,0,2.37-.77c.8-.34,1.12-.25,1,.6A23.76,23.76,0,0,1,92.54,39a26.11,26.11,0,0,1-2.13,5,18.85,18.85,0,0,1-3.36,4.32,30.2,30.2,0,0,0-4.43,4.54,22.76,22.76,0,0,1-2.48,2.53,2.26,2.26,0,0,0-.47.56c-.56,1.26-1.11,2.52-1.65,3.8-.11.25-.26.68-.15.8,1.32,1.38.18,3.07.6,4.55.21.74.16,1.57,1,2a.67.67,0,0,1,.28.52,30.72,30.72,0,0,1-.25,5.44,6.7,6.7,0,0,1-2,2.84,5.6,5.6,0,0,1-2,1A4.64,4.64,0,0,0,73.1,78.8a3.5,3.5,0,0,1-1.64,1.29c-1.16.43-1,1.19-.69,2a5,5,0,0,1,.29,3.62,2.11,2.11,0,0,1-.74,1.05c-.87.6-1.85,1.06-2.73,1.65-.25.17-.33.61-.46.94a16,16,0,0,1-1.27,3.06,15.24,15.24,0,0,1-2.8,3c-2.29,1.92-4.55,4.12-7.86,3.86a9.94,9.94,0,0,0-4.34.61,2.89,2.89,0,0,1-3-1.52c0-.17-.13-.41,0-.51.79-1,.16-1.72-.31-2.5a36.42,36.42,0,0,0-2.37-3.78c-1.34-1.73-1.6-3.72-1.89-5.76a8.82,8.82,0,0,0-.9-2.77,38.63,38.63,0,0,0-2.21-3.63,6.61,6.61,0,0,1-.76-5.87,7.09,7.09,0,0,1,1.88-3.48,2.6,2.6,0,0,0,.41-2.88c-.18-.54-.48-1-.71-1.55-.09-.22-.29-.56-.21-.68.82-1.18-.06-2.06-.58-2.89a13.22,13.22,0,0,1-.84-2.51C38.71,58,37.49,57.1,36.46,56a16.31,16.31,0,0,1-1.59-2.1C34.25,52.87,34.61,51.88,35.77,51.26Z"/><path class="cls-1" d="M91.36,74.17c-.24.25-.59.45-.69.74a38.87,38.87,0,0,1-1.17,3.75c-1.26,2.78-2.66,5.48-4,8.21a3.17,3.17,0,0,1-3.36.95c-.22-.14-.51-.39-.51-.6,0-2-.5-4,1.27-5.69a3.07,3.07,0,0,0,.59-1.7c.18-1.17.13-2.38.42-3.51.12-.47.82-.89,1.35-1.13.75-.35,1.63-.42,2.36-.78.4-.2.62-.78.94-1.16.46-.55,1-1.06,1.39-1.64a2.94,2.94,0,0,0,.37-1c.08-.27.12-.56.22-1.06,1.45,1.49.91,3.16,1.2,4.64Z"/></svg>