<?xml version="1.0" encoding="UTF-8" standalone="no"?><!DOCTYPE svg PUBLIC "-//W3C//DTD SVG 1.1//EN" "http://www.w3.org/Graphics/SVG/1.1/DTD/svg11.dtd"><svg width="100%" height="100%" viewBox="0 0 22 9" version="1.1" xmlns="http://www.w3.org/2000/svg" xmlns:xlink="http://www.w3.org/1999/xlink" xml:space="preserve" xmlns:serif="http://www.serif.com/" style="fill-rule:evenodd;clip-rule:evenodd;stroke-linejoin:round;stroke-miterlimit:2;"><g><g><g><g><g><path d="M11.028,5.157l2.599,-1.144l0.99,-0.436c0.106,-0.046 0.13,-0.185 0.046,-0.265l-0.377,-0.36l-2.226,-2.124c-0.059,-0.057 -0.152,0.014 -0.113,0.086l1.25,2.306c0.045,0.084 0.009,0.189 -0.079,0.226l-2.623,1.11l-0.872,0.369c-0.072,0.03 -0.086,0.126 -0.026,0.176l4.493,3.719c0.068,0.057 0.159,-0.037 0.1,-0.103l-3.162,-3.561Z" style="fill:#fff;fill-rule:nonzero;"/><path d="M11.817,0.739l0.082,0.322c0.017,0.067 -0.077,0.101 -0.107,0.039l-0.486,-1.018c-0.026,-0.055 0.041,-0.108 0.088,-0.069l0.872,0.715c0.054,0.044 -0.002,0.127 -0.063,0.095l-0.293,-0.157c-0.05,-0.027 -0.107,0.018 -0.093,0.073" style="fill:#fff;fill-rule:nonzero;"/></g></g><g><path d="M19.865,5.157l-2.599,-1.144l-0.99,-0.436c-0.106,-0.046 -0.13,-0.185 -0.046,-0.265l0.377,-0.36l2.226,-2.124c0.059,-0.057 0.152,0.014 0.113,0.086l-1.25,2.306c-0.045,0.084 -0.009,0.189 0.079,0.226l2.623,1.11l0.872,0.369c0.072,0.03 0.086,0.126 0.026,0.176l-4.493,3.719c-0.068,0.057 -0.159,-0.037 -0.1,-0.103l3.162,-3.561Z" style="fill:#fff;fill-rule:nonzero;"/><g><path d="M19.077,0.739l-0.082,0.322c-0.017,0.067 0.077,0.101 0.107,0.039l0.486,-1.018c0.026,-0.055 -0.041,-0.108 -0.088,-0.069l-0.872,0.715c-0.054,0.044 0.002,0.127 0.063,0.095l0.293,-0.157c0.05,-0.027 0.107,0.018 0.093,0.073" style="fill:#fff;fill-rule:nonzero;"/></g></g><g><path d="M4.195,4.515l-0.748,-2.198c-0.066,-0.194 -0.292,-0.098 -0.256,0.108l1.069,6.201c0.02,0.116 0.148,0.116 0.168,0l1.069,-6.201c0.036,-0.206 -0.19,-0.302 -0.256,-0.108l-0.748,2.198c-0.057,0.168 -0.242,0.168 -0.299,0" style="fill:#fff;fill-rule:nonzero;"/><path d="M1.56,0.648l-1.508,0.442c-0.031,0.009 -0.052,0.037 -0.052,0.069l0,7.609c0,0.088 0.128,0.099 0.143,0.012l1.166,-6.692c0.003,-0.018 0.013,-0.034 0.027,-0.045l2.484,-1.915c0.063,-0.049 0.012,-0.148 -0.064,-0.126l-2.196,0.645Z" style="fill:#fff;fill-rule:nonzero;"/><path d="M7.143,0.648l1.508,0.442c0.031,0.009 0.052,0.037 0.052,0.069l0,7.609c0,0.088 -0.128,0.099 -0.143,0.012l-1.166,-6.692c-0.003,-0.018 -0.013,-0.034 -0.027,-0.045l-2.484,-1.915c-0.063,-0.049 -0.012,-0.148 0.064,-0.126l2.196,0.645Z" style="fill:#fff;fill-rule:nonzero;"/></g><path d="M15.447,8.84l0.303,-0.303l-0.303,-0.303l-0.303,0.303l0.303,0.303Z" style="fill:#fff;"/></g></g></g></svg>